<?xml version="1.0" encoding="utf-8"?>
<!-- Generator: Adobe Illustrator 17.0.0, SVG Export Plug-In . SVG Version: 6.00 Build 0)  -->
<!DOCTYPE svg PUBLIC "-//W3C//DTD SVG 1.1//EN" "http://www.w3.org/Graphics/SVG/1.1/DTD/svg11.dtd">
<svg version="1.1" id="Layer_1" xmlns="http://www.w3.org/2000/svg" xmlns:xlink="http://www.w3.org/1999/xlink" x="0px" y="0px"
	 width="97px" height="94px" viewBox="0 0 97 94" enable-background="new 0 0 97 94" xml:space="preserve">
<path fill="#040707" d="M7.24,48.821c0-13.04,0-26.08,0-39.12c0.555-2.965,2.315-4.725,5.28-5.28c22.24,0,44.48,0,66.72,0
	c3.921,0.74,5.874,3.099,5.877,7.143c0.007,11.911-0.011,23.822,0.015,35.732c0.005,2.182-0.74,3.996-2.334,5.432
	c-0.632,0.57-0.41,0.855,0.078,1.308c1.553,1.441,3.024,2.967,4.513,4.473c1.727,1.748,1.74,2.376,0.17,4.235
	c-0.15,0.178-0.346,0.336-0.3,0.675c1.051,0.487,2.798-0.231,3.138,1.645c0.001,2.933,0,5.865,0.001,8.794
	c0.079,0.96-0.525,1.34-1.326,1.555c-0.468,0.126-0.949,0.111-1.426,0.137c-0.652,0.036-0.649,0.321-0.272,0.738
	c0.268,0.296,0.57,0.56,0.818,0.873c0.704,0.893,0.765,1.782-0.015,2.596c-1.819,1.901-3.68,3.762-5.579,5.582
	c-0.851,0.816-1.753,0.741-2.687-0.029c-0.277-0.228-0.516-0.499-0.783-0.739c-0.146-0.132-0.298-0.317-0.508-0.261
	c-0.301,0.08-0.238,0.376-0.251,0.599c-0.028,0.478-0.022,0.958-0.157,1.423c-0.219,0.754-0.601,1.311-1.503,1.245
	c-2.926,0-5.85,0-8.772,0c-0.977-0.021-1.229-0.731-1.432-1.499c-0.142-0.539,0.018-1.123-0.254-1.657
	c-0.577-0.031-0.806,0.465-1.154,0.757c-1.059,0.89-1.898,1.021-2.895,0.144c-2.01-1.769-3.918-3.656-5.668-5.685
	c-0.811-0.94-0.717-1.581,0.102-2.561c0.205-0.246,0.441-0.464,0.654-0.702c0.448-0.502,0.333-0.804-0.336-0.784
	c-1.103,0.033-2.018-0.306-2.806-1.099c-0.496-0.499-1.203-0.351-1.834-0.351c-9.036-0.007-18.072-0.008-27.109-0.001
	c-2.093,0.001-3.832-0.666-5.037-2.468c-1.913-2.861-0.43-6.833,2.899-7.696c0.889-0.231,1.802-0.386,2.726-0.386
	c0.723,0,1.172-0.332,1.52-0.956c1.285-2.305,2.458-4.67,3.746-6.972c0.518-0.926,0.083-0.972-0.667-0.97
	c-5.238,0.011-10.476,0.002-15.713,0.009c-1.26,0.002-2.473-0.183-3.599-0.766C8.98,52.847,7.497,51.292,7.24,48.821z"/>
<path fill="#040707" d="M7.24,84.101c0.515-0.494,0.495-1.212,0.755-1.812c1.756-4.058,6.348-6.529,10.801-5.597
	c4.215,0.882,7.538,4.378,7.708,9.104c0.028,0.773-0.11,1.434-0.951,1.717c-4.473,0.151-8.948,0.011-13.422,0.075
	c-1.31,0.019-2.628-0.162-3.931,0.114c-0.822,0.182-1.067-0.131-0.98-0.962C7.311,85.869,7.24,84.981,7.24,84.101z"/>
<path fill="#424444" d="M8.2,87.701c0.149-0.244,0.394-0.239,0.632-0.238c5.574,0.015,11.147,0.032,16.721,0.049
	c0.022,0.081-0.003,0.144-0.073,0.189C19.72,87.701,13.96,87.701,8.2,87.701z"/>
<path fill="#464848" d="M90.52,74.261c-0.078,0.003-0.156,0.006-0.235,0.008c-0.003-3.121-0.005-6.243-0.008-9.364
	c0.081-0.001,0.162-0.003,0.243-0.004C90.52,68.021,90.52,71.141,90.52,74.261z"/>
<path fill="#464848" d="M77.088,87.467c-0.003,0.078-0.006,0.156-0.008,0.235c-3.12,0-6.24,0-9.36,0
	c0.001-0.081,0.003-0.162,0.004-0.243C70.846,87.461,73.967,87.464,77.088,87.467z"/>
<path fill="#FEFEFE" d="M46.001,40.419c-11.64,0-23.279-0.015-34.919,0.026c-1.024,0.004-1.222-0.277-1.218-1.251
	c0.04-9.04,0.022-18.079,0.025-27.119c0.001-3.358,1.644-5.005,4.995-5.005c20.759-0.002,41.519,0.015,62.278-0.019
	c2.878-0.005,5.023,1.676,4.987,4.903c-0.102,9.079-0.052,18.159-0.012,27.239c0.004,0.973-0.193,1.256-1.218,1.252
	C69.28,40.404,57.64,40.419,46.001,40.419z"/>
<path fill="#FEFEFE" d="M46.023,43.11c11.596,0,23.191,0.013,34.787-0.023c1.019-0.003,1.464,0.178,1.325,1.293
	c-0.108,0.866-0.018,1.757-0.023,2.636c-0.017,2.82-1.615,4.454-4.437,4.457c-12.155,0.012-24.311,0.006-36.466,0.006
	c-8.837,0-17.674-0.059-26.509,0.033c-2.961,0.031-4.923-1.746-4.814-4.887c0.039-1.114-0.369-2.585,0.191-3.249
	c0.655-0.776,2.178-0.251,3.319-0.253C24.272,43.102,35.148,43.11,46.023,43.11z"/>
<path fill="#FEFEFE" d="M61.536,63.186c0.003-0.696-0.478-1.019-0.886-1.404c-1.104-1.042-1.087-1.039,0.024-2.101
	c0.776-0.741,1.571-1.471,2.264-2.286c0.513-0.604,0.813-0.477,1.286,0.02c0.499,0.524,0.864,1.377,1.781,1.221
	c1.181-0.2,2.254-0.753,3.208-1.446c0.603-0.438,0.467-1.241,0.416-1.909c-0.052-0.686,0.083-1.004,0.885-0.956
	c1.275,0.077,2.558,0.043,3.836,0.011c0.57-0.014,0.859,0.07,0.843,0.759c-0.017,0.725-0.347,1.641,0.392,2.131
	c0.947,0.629,2,1.132,3.119,1.407c0.627,0.154,0.999-0.331,1.393-0.747c1.153-1.218,1.157-1.201,2.3,0.04
	c0.701,0.762,1.401,1.529,2.153,2.239c0.426,0.402,0.536,0.638,0.065,1.128c-1.433,1.488-1.419,3.459-0.035,4.994
	c0.549,0.609,1.292,0.596,2.007,0.52c0.797-0.085,1.136,0.111,1.074,1.004c-0.086,1.233-0.042,2.477-0.012,3.716
	c0.013,0.561-0.053,0.868-0.754,0.844c-0.731-0.025-1.622-0.327-2.163,0.344c-0.726,0.901-1.076,2.038-1.361,3.143
	c-0.206,0.799,0.513,1.284,1.041,1.758c0.632,0.567,0.67,1.002-0.035,1.597c-0.913,0.77-1.739,1.651-2.552,2.53
	c-0.413,0.446-0.654,0.465-1.138,0.048c-1.626-1.4-3.321-1.372-5.018-0.038c-0.606,0.476-0.569,1.141-0.483,1.756
	c0.156,1.124-0.293,1.417-1.356,1.331c-1.152-0.094-2.318-0.053-3.476-0.008c-0.589,0.023-0.716-0.177-0.73-0.741
	c-0.052-2.028-1.471-3.427-3.506-3.576c-0.798-0.058-1.284,0.434-1.691,0.964c-0.633,0.822-1.09,0.713-1.733-0.021
	c-0.785-0.896-1.687-1.694-2.571-2.498c-0.399-0.363-0.52-0.634-0.048-1.022c0.306-0.251,0.555-0.57,0.83-0.86
	c0.135-0.143,0.305-0.266,0.399-0.432c0.668-1.178-1.103-4.258-2.464-4.3c-1.673-0.051-1.673-0.051-1.673-1.695
	c0-0.52-0.001-1.039,0-1.559c0.002-0.679-0.217-1.481,0.069-2.007c0.341-0.628,1.232-0.124,1.858-0.282
	c0.303-0.076,0.687-0.139,0.865-0.35C60.765,65.505,61.002,64.273,61.536,63.186z"/>
<path fill="#FEFEFE" d="M44.276,64.048c-4.313,0-8.627-0.033-12.94,0.022c-1.165,0.015-1.142-0.304-0.659-1.167
	c1.471-2.635,2.898-5.294,4.314-7.959c0.24-0.452,0.521-0.606,1.024-0.605c6.71,0.015,13.42,0.025,20.129-0.011
	c0.788-0.004,0.994,0.503,1.321,0.983c1.488,2.192,1.489,2.191-0.328,4.056c-1.229,1.262-1.201,1.472,0.064,2.824
	c0.435,0.465,1.365,0.828,1.047,1.564c-0.275,0.64-1.152,0.274-1.752,0.278C52.423,64.061,48.35,64.048,44.276,64.048z"/>
<path fill="#FEFEFE" d="M38.978,66.821c4.759,0,9.519,0.02,14.277-0.02c0.813-0.007,1.145,0.148,1.059,1.026
	c-0.097,0.986,0.321,2.315-0.18,2.894c-0.582,0.674-1.943,0.219-2.963,0.221c-8.758,0.017-17.517,0.013-26.275,0.006
	c-1.765-0.001-2.854-1.283-2.317-2.734c0.353-0.953,1.056-1.409,2.121-1.404C29.459,66.836,34.219,66.822,38.978,66.821z"/>
<path fill="#EFEFEF" d="M79.983,54.367c-0.367,0.297-0.749,0.577-1.096,0.895c-0.224,0.205-0.45,0.362-0.734,0.204
	c-0.235-0.132-0.187-0.406-0.207-0.64c-0.031-0.355,0.126-0.478,0.47-0.514c0.465-0.049,0.924-0.163,1.385-0.249
	C79.862,54.164,79.923,54.265,79.983,54.367z"/>
<path fill="#E6E6E6" d="M64.921,54.273c0.866,0.222,1.541-0.334,1.938,0.42c0.127,0.24,0.115,0.744-0.266,0.801
	C65.838,55.606,65.585,54.929,64.921,54.273z"/>
<path fill="#ECECEC" d="M60.142,54.391c0.696,0,1.214,0,1.891,0c-0.352,0.473-0.628,0.967-1.061,0.982
	C60.551,55.389,60.483,54.804,60.142,54.391z"/>
<path fill="#FEFEFE" d="M10.115,84.82c0.568-2.687,2.214-4.241,4.579-5.155c0.437-0.169,0.755-0.21,0.746,0.447
	c-0.008,0.586-0.279,1.361,0.133,1.718c0.49,0.424,1.3,0.074,1.962,0.163c0.678,0.091,0.763-0.24,0.77-0.818
	c0.024-1.874,0.2-1.99,1.829-1.052c1.553,0.895,2.784,2.116,3.317,3.899c0.103,0.344,0.384,0.802-0.364,0.801
	C18.788,84.817,14.491,84.82,10.115,84.82z"/>
<path fill="#040707" d="M38.721,35.38c-0.704-0.342-1.395-0.648-2.055-1.01c-0.26-0.143-0.13-0.405-0.017-0.631
	c3.171-6.315,6.334-12.634,9.506-18.948c0.784-1.561,1.64-3.089,2.371-4.674c0.325-0.704,0.67-0.761,1.249-0.402
	c0.203,0.125,0.406,0.268,0.629,0.338c0.834,0.261,0.928,0.675,0.525,1.458c-1.928,3.744-3.808,7.514-5.688,11.283
	c-1.951,3.911-3.879,7.835-5.833,11.745C39.25,34.858,39.218,35.337,38.721,35.38z"/>
<path fill="#040707" d="M65.365,23.814c0.003,0.462-0.209,0.822-0.537,1.149c-3.052,3.041-6.104,6.083-9.135,9.145
	c-0.319,0.322-0.497,0.253-0.773,0.009c-1.674-1.483-1.68-1.484-0.123-3.031c2.209-2.195,4.394-4.415,6.655-6.556
	c0.691-0.654,0.566-0.974-0.045-1.56c-2.447-2.346-4.814-4.776-7.272-7.109c-0.667-0.632-0.666-1.045-0.013-1.588
	c0.182-0.152,0.352-0.331,0.486-0.526c0.477-0.695,0.833-0.612,1.417-0.013c2.81,2.882,5.679,5.706,8.529,8.549
	C64.982,22.711,65.4,23.138,65.365,23.814z"/>
<path fill="#040707" d="M25.967,23.843c2.48,2.522,5.075,5.222,7.749,7.84c0.703,0.688,0.719,1.172-0.068,1.594
	c-0.495,0.266-0.594,1.621-1.439,0.809c-3.101-2.982-6.118-6.052-9.145-9.109c-0.781-0.789-0.773-1.62,0.003-2.401
	c2.944-2.964,5.928-5.887,8.847-8.875c0.577-0.59,0.903-0.554,1.336,0.047c0.115,0.16,0.262,0.304,0.415,0.429
	c0.715,0.582,0.748,1.024,0.015,1.748C31.045,18.525,28.503,21.224,25.967,23.843z"/>
<path fill="#0E1111" d="M64.055,33.52c0.405,1.298-0.3,1.361-1.358,1.41c-1.208,0.056-1.411-0.355-1.429-1.468
	c-0.019-1.195,0.355-1.436,1.481-1.432C63.913,32.034,64.388,32.34,64.055,33.52z"/>
<path fill="#0B0E0E" d="M69.594,33.5c0.357,1.197-0.195,1.414-1.322,1.43c-1.146,0.016-1.426-0.274-1.469-1.435
	c-0.049-1.336,0.481-1.422,1.575-1.463C69.592,31.986,69.86,32.441,69.594,33.5z"/>
<path fill="#080B0B" d="M75.122,33.629c0.462,1.408-0.51,1.174-1.419,1.288c-1.46,0.183-1.143-0.742-1.258-1.576
	c-0.176-1.268,0.513-1.215,1.438-1.3C75.23,31.916,75.296,32.606,75.122,33.629z"/>
<path fill="#040707" d="M64.112,69.589c0.006-4.682,3.642-8.3,8.339-8.295c4.519,0.004,8.268,3.772,8.264,8.307
	c-0.004,4.501-3.84,8.318-8.339,8.296C67.839,77.873,64.106,74.121,64.112,69.589z"/>
<path fill="#FEFEFE" d="M66.896,69.428c0.096-3.13,2.55-5.445,5.676-5.353c3.005,0.088,5.475,2.621,5.419,5.557
	c-0.057,2.968-2.715,5.587-5.626,5.541C69.261,75.123,66.8,72.538,66.896,69.428z"/>
</svg>
