<?xml version="1.0" encoding="utf-8"?>
<!-- Generator: Adobe Illustrator 19.2.0, SVG Export Plug-In . SVG Version: 6.00 Build 0)  -->
<svg version="1.1" id="Layer_1" xmlns="http://www.w3.org/2000/svg" xmlns:xlink="http://www.w3.org/1999/xlink" x="0px" y="0px"
	 width="176.8px" height="33.2px" viewBox="0 0 176.8 33.2" style="enable-background:new 0 0 176.8 33.2;" xml:space="preserve">
<style type="text/css">
	.st0{fill:#666666;}
	.st1{fill:url(#SVGID_1_);}
	.st2{fill:url(#SVGID_2_);}
	.st3{fill:url(#SVGID_3_);}
	.st4{fill:url(#SVGID_4_);}
	.st5{fill:url(#SVGID_5_);}
	.st6{fill:#4D4D4D;}
	.st7{fill-rule:evenodd;clip-rule:evenodd;fill:#8CC63C;}
	.st8{fill-rule:evenodd;clip-rule:evenodd;fill:#F7941C;}
	.st9{fill-rule:evenodd;clip-rule:evenodd;fill:#01AFEE;}
	.st10{fill-rule:evenodd;clip-rule:evenodd;fill:#662E91;}
	.st11{fill-rule:evenodd;clip-rule:evenodd;fill:#ED0C90;}
</style>
<path class="st0" d="M50.3,25.6c-0.8,0-1.3,0.1-1.7,0.6c-0.3,0.4-0.4,1-0.4,2.1c0,1.1,0.1,1.7,0.4,2.1c0.3,0.4,0.8,0.6,1.7,0.6
	c0.6,0,1,0,1.3-0.1c0.1,0,0.1-0.1,0.1-0.1v-0.3c0-0.1,0-0.1-0.1-0.1h-1.3c-0.6,0-1-0.1-1.1-0.4c-0.2-0.3-0.3-0.8-0.3-1.6
	c0-0.8,0.1-1.4,0.3-1.6c0.2-0.3,0.5-0.4,1.1-0.4h1.3c0.1,0,0.1,0,0.1-0.1v-0.3c0-0.1,0-0.1-0.1-0.1C51.3,25.6,50.8,25.6,50.3,25.6
	L50.3,25.6z"/>
<path class="st0" d="M53.3,27.1c-0.2,0-0.3,0-0.5,0.1c-0.1,0-0.2,0.1-0.3,0.1c-0.1,0.1-0.3,0.3-0.3,0.6v2.9c0,0.1,0,0.1,0.1,0.1h0.4
	c0.1,0,0.1,0,0.1-0.1V28c0-0.3,0.1-0.4,0.6-0.4H54c0.1,0,0.1,0,0.1-0.1v-0.3c0-0.1,0-0.1-0.1-0.1C53.9,27.1,53.6,27.1,53.3,27.1
	L53.3,27.1z"/>
<path class="st0" d="M57.4,28c-0.1-0.5-0.3-0.8-0.7-0.9c-0.2-0.1-0.5-0.1-0.8-0.1c-0.3,0-0.6,0-0.8,0.1c-0.4,0.1-0.6,0.4-0.7,0.9
	c0,0.2-0.1,0.5-0.1,1c0,0.4,0,0.7,0.1,1c0.1,0.5,0.3,0.8,0.7,0.9c0.2,0,0.5,0.1,0.8,0.1c0.3,0,0.6,0,0.8-0.1
	c0.4-0.1,0.6-0.4,0.7-0.9c0-0.2,0.1-0.6,0.1-1C57.4,28.6,57.4,28.3,57.4,28z M56.6,30.1c-0.1,0.2-0.4,0.3-0.8,0.3
	c-0.4,0-0.7-0.1-0.8-0.3c-0.1-0.2-0.2-0.5-0.2-1.1c0-0.6,0.1-0.9,0.2-1.1c0.1-0.2,0.4-0.3,0.8-0.3c0.4,0,0.7,0.1,0.8,0.3
	c0.1,0.2,0.2,0.5,0.2,1.1C56.8,29.6,56.7,29.9,56.6,30.1z"/>
<path class="st0" d="M62.4,27.1c-0.1,0-0.1,0-0.1,0.1l-0.6,2.8c-0.1,0.2-0.1,0.3-0.2,0.3c-0.1,0-0.1,0-0.2-0.3l-0.7-2.7
	c0-0.1,0-0.1-0.1-0.1H60c0,0-0.1,0-0.1,0.1l-0.7,2.7c-0.1,0.2-0.1,0.3-0.2,0.3c-0.1,0-0.1,0-0.2-0.3l-0.6-2.8c0-0.1,0-0.1-0.1-0.1
	h-0.5c-0.1,0-0.1,0-0.1,0.1l0.6,2.9c0.1,0.3,0.2,0.6,0.2,0.7c0.1,0.1,0.3,0.1,0.6,0.1c0.3,0,0.5,0,0.6-0.1c0.1-0.1,0.2-0.3,0.2-0.7
	l0.4-1.9l0.4,1.9c0.1,0.4,0.2,0.6,0.2,0.7c0.1,0.1,0.3,0.1,0.6,0.1c0.3,0,0.5,0,0.6-0.1c0.1-0.1,0.2-0.3,0.2-0.7l0.6-2.9
	c0-0.1,0-0.1-0.1-0.1H62.4L62.4,27.1z"/>
<path class="st0" d="M66.4,25.6h-0.5c-0.1,0-0.1,0-0.1,0.1v1.4c-0.2,0-0.5,0-0.9,0c-0.6,0-1.1,0.1-1.3,0.4c-0.2,0.3-0.3,0.8-0.3,1.6
	c0,0.9,0.1,1.4,0.5,1.7c0.3,0.2,0.6,0.2,1.1,0.2c0.5,0,0.9,0,1.4-0.1c0.1,0,0.1,0,0.1-0.1v-4.9C66.5,25.7,66.5,25.6,66.4,25.6z
	 M65.8,30.3c-0.3,0-0.6,0.1-0.9,0.1c-0.4,0-0.7-0.1-0.8-0.3C64.1,29.9,64,29.6,64,29c0-0.6,0.1-0.9,0.2-1.1c0.1-0.2,0.4-0.3,0.8-0.3
	h0.9V30.3z"/>
<path class="st0" d="M68.5,25.6c-0.2,0-0.3,0-0.5,0.1c-0.1,0-0.2,0.1-0.3,0.1c-0.1,0.1-0.2,0.3-0.2,0.6v0.7H67c-0.1,0-0.1,0-0.1,0.1
	v0.3c0,0.1,0,0.1,0.1,0.1h0.5v3.1c0,0.1,0,0.1,0.1,0.1H68c0.1,0,0.1,0,0.1-0.1v-3.1h0.8c0.1,0,0.1,0,0.1-0.1l0.1-0.3
	c0-0.1,0-0.1-0.1-0.1h-0.9v-0.5c0-0.3,0.1-0.4,0.6-0.4h0.4c0.1,0,0.1,0,0.1-0.1v-0.3c0-0.1,0-0.1-0.1-0.1
	C68.9,25.6,68.7,25.6,68.5,25.6L68.5,25.6z"/>
<path class="st0" d="M72,27.1c-0.1,0-0.1,0-0.1,0.1v3.1H71c-0.4,0-0.5,0-0.7-0.2c-0.2-0.1-0.2-0.4-0.2-0.9v-2c0-0.1,0-0.1-0.1-0.1
	h-0.4c-0.1,0-0.1,0-0.1,0.1v2.1c0,0.7,0.1,1.1,0.3,1.4c0.1,0.1,0.3,0.2,0.5,0.2c0.2,0,0.4,0,0.8,0c0.6,0,1,0,1.4-0.1
	c0.1,0,0.1,0,0.1-0.1v-3.5c0-0.1,0-0.1-0.1-0.1H72L72,27.1z"/>
<path class="st0" d="M74.8,27.1c-0.6,0-1,0-1.4,0.1c-0.1,0-0.1,0-0.1,0.1v3.5c0,0.1,0,0.1,0.1,0.1h0.5c0.1,0,0.1,0,0.1-0.1v-3.1h0.9
	c0.3,0,0.4,0,0.6,0.1c0.1,0,0.1,0.1,0.2,0.2c0.1,0.2,0.1,0.4,0.1,0.8v2c0,0.1,0,0.1,0.1,0.1h0.4c0.1,0,0.1,0,0.1-0.1v-2.1
	c0-0.7-0.1-1.1-0.3-1.4c-0.1-0.1-0.3-0.2-0.5-0.2C75.4,27.1,75.2,27.1,74.8,27.1L74.8,27.1z"/>
<path class="st0" d="M80,25.6h-0.5c-0.1,0-0.1,0-0.1,0.1v1.4c-0.2,0-0.5,0-0.9,0c-0.6,0-1.1,0.1-1.3,0.4C77.1,27.7,77,28.2,77,29
	c0,0.9,0.1,1.4,0.5,1.7c0.3,0.2,0.6,0.2,1.1,0.2c0.5,0,0.9,0,1.4-0.1c0.1,0,0.1,0,0.1-0.1v-4.9C80.2,25.7,80.1,25.6,80,25.6z
	 M79.5,30.3c-0.3,0-0.6,0.1-0.9,0.1c-0.4,0-0.7-0.1-0.8-0.3c-0.1-0.2-0.2-0.5-0.2-1.1c0-0.6,0.1-0.9,0.2-1.1
	c0.1-0.2,0.4-0.3,0.8-0.3h0.9V30.3z"/>
<path class="st0" d="M81.6,26c0-0.3-0.1-0.4-0.4-0.4c-0.3,0-0.4,0.1-0.4,0.4c0,0.3,0.1,0.4,0.4,0.4C81.5,26.4,81.6,26.3,81.6,26
	L81.6,26z"/>
<path class="st0" d="M81,27.1c-0.1,0-0.1,0-0.1,0.1v3.6c0,0.1,0,0.1,0.1,0.1h0.5c0.1,0,0.1,0,0.1-0.1v-3.6c0-0.1,0-0.1-0.1-0.1H81
	L81,27.1z"/>
<path class="st0" d="M83.8,27.1c-0.6,0-1,0-1.4,0.1c-0.1,0-0.1,0-0.1,0.1v3.5c0,0.1,0,0.1,0.1,0.1h0.5c0.1,0,0.1,0,0.1-0.1v-3.1h0.9
	c0.3,0,0.4,0,0.6,0.1c0.1,0,0.1,0.1,0.2,0.2c0.1,0.2,0.1,0.4,0.1,0.8v2c0,0.1,0,0.1,0.1,0.1h0.4c0.1,0,0.1,0,0.1-0.1v-2.1
	c0-0.7-0.1-1.1-0.3-1.4c-0.1-0.1-0.3-0.2-0.5-0.2C84.4,27.1,84.1,27.1,83.8,27.1L83.8,27.1z"/>
<path class="st0" d="M89,27.2c-0.4-0.1-0.8-0.1-1.4-0.1c-0.7,0-1,0.1-1.3,0.4C86.1,27.8,86,28.2,86,29c0,0.8,0.1,1.3,0.3,1.6
	c0.2,0.3,0.6,0.4,1.3,0.4c0.4,0,0.7,0,0.9-0.1v0c0,0.3-0.1,0.5-0.2,0.6c-0.1,0.1-0.4,0.2-0.8,0.2h-1c-0.1,0-0.1,0-0.1,0.1v0.3
	c0,0.1,0,0.1,0.1,0.1c0.3,0,0.6,0.1,1,0.1c0.7,0,1-0.1,1.3-0.4c0.2-0.3,0.3-0.7,0.3-1.4v-3.2C89.1,27.2,89.1,27.2,89,27.2z
	 M88.5,30.3c-0.3,0-0.5,0-0.9,0c-0.4,0-0.7-0.1-0.8-0.3c-0.1-0.2-0.2-0.5-0.2-1.1c0-0.6,0.1-0.9,0.2-1.1c0.1-0.2,0.4-0.3,0.8-0.3
	h0.9V30.3z"/>
<path class="st0" d="M94.2,27.4c-0.2-0.3-0.6-0.4-1.3-0.4c-0.5,0-0.9,0-1.4,0.1c-0.1,0-0.1,0.1-0.1,0.1v4.9c0,0.1,0,0.1,0.1,0.1H92
	c0.1,0,0.1,0,0.1-0.1v-1.3c0.2,0,0.5,0,0.9,0c0.6,0,1.1-0.1,1.3-0.4c0.2-0.3,0.3-0.8,0.3-1.6C94.5,28.2,94.4,27.7,94.2,27.4z
	 M93.7,30.1c-0.1,0.2-0.4,0.2-0.8,0.2c-0.3,0-0.6,0-0.9-0.1v-2.6h0.9c0.4,0,0.7,0.1,0.8,0.3c0.1,0.2,0.2,0.5,0.2,1.1
	C93.9,29.6,93.8,29.9,93.7,30.1z"/>
<path class="st0" d="M95.3,25.6c-0.1,0-0.1,0-0.1,0.1v5c0,0.1,0,0.1,0.1,0.1h0.5c0.1,0,0.1,0,0.1-0.1v-5c0-0.1,0-0.1-0.1-0.1H95.3
	L95.3,25.6z"/>
<path class="st0" d="M97.7,27.1c-0.4,0-0.7,0-1,0.1c-0.1,0-0.1,0-0.1,0.1v0.3c0,0.1,0,0.1,0.1,0.1h1c0.6,0,0.9,0.2,0.9,0.6v0.5
	l-1.1,0c-0.8,0-1.2,0.3-1.2,1.1c0,0.4,0.1,0.7,0.3,0.9c0.2,0.1,0.5,0.2,1,0.2c0.7,0,1.3,0,1.5-0.2c0.1,0,0.1-0.1,0.1-0.2v-2.4
	C99.3,27.4,98.8,27.1,97.7,27.1z M98.6,30.3c-0.2,0.1-0.5,0.1-0.9,0.1c-0.6,0-0.8-0.1-0.8-0.6c0-0.4,0.2-0.5,0.6-0.5h1.1V30.3z"/>
<path class="st0" d="M100.3,26.2c-0.1,0-0.1,0-0.1,0.1v0.8h-0.4c-0.1,0-0.1,0-0.1,0.1v0.3c0,0.1,0,0.1,0.1,0.1h0.4v2.5
	c0,0.5,0.2,0.7,0.5,0.7c0.2,0.1,0.3,0.1,0.6,0.1c0.1,0,0.3,0,0.4,0c0.1,0,0.1,0,0.1-0.1v-0.3c0-0.1,0-0.1-0.1-0.1h-0.3
	c-0.4,0-0.4-0.1-0.4-0.4v-2.3h0.7c0.1,0,0.1,0,0.1-0.1v-0.3c0-0.1,0-0.1-0.1-0.1h-0.7v-1c0-0.1,0-0.1-0.1-0.1L100.3,26.2L100.3,26.2
	z"/>
<path class="st0" d="M103.4,25.6c-0.2,0-0.3,0-0.5,0.1c-0.1,0-0.2,0.1-0.3,0.1c-0.1,0.1-0.2,0.3-0.2,0.6v0.7h-0.5
	c-0.1,0-0.1,0-0.1,0.1v0.3c0,0.1,0,0.1,0.1,0.1h0.5v3.1c0,0.1,0,0.1,0.1,0.1h0.5c0.1,0,0.1,0,0.1-0.1v-3.1h0.8c0.1,0,0.1,0,0.1-0.1
	l0.1-0.3c0-0.1,0-0.1-0.1-0.1h-0.9v-0.5c0-0.3,0.1-0.4,0.6-0.4h0.4c0.1,0,0.1,0,0.1-0.1v-0.3c0-0.1,0-0.1-0.1-0.1
	C103.8,25.6,103.6,25.6,103.4,25.6L103.4,25.6z"/>
<path class="st0" d="M107.3,28c-0.1-0.5-0.3-0.8-0.7-0.9c-0.2-0.1-0.5-0.1-0.8-0.1c-0.3,0-0.6,0-0.8,0.1c-0.4,0.1-0.6,0.4-0.7,0.9
	c0,0.2-0.1,0.5-0.1,1c0,0.4,0,0.7,0.1,1c0.1,0.5,0.3,0.8,0.7,0.9c0.2,0,0.5,0.1,0.8,0.1c0.3,0,0.6,0,0.8-0.1
	c0.4-0.1,0.6-0.4,0.7-0.9c0-0.2,0.1-0.6,0.1-1C107.3,28.6,107.3,28.3,107.3,28z M106.5,30.1c-0.1,0.2-0.4,0.3-0.8,0.3
	c-0.4,0-0.7-0.1-0.8-0.3c-0.1-0.2-0.2-0.5-0.2-1.1c0-0.6,0.1-0.9,0.2-1.1c0.1-0.2,0.4-0.3,0.8-0.3c0.4,0,0.7,0.1,0.8,0.3
	c0.1,0.2,0.2,0.5,0.2,1.1C106.7,29.6,106.6,29.9,106.5,30.1z"/>
<path class="st0" d="M109,27.1c-0.2,0-0.3,0-0.5,0.1c-0.1,0-0.2,0.1-0.3,0.1c-0.1,0.1-0.3,0.3-0.3,0.6v2.9c0,0.1,0,0.1,0.1,0.1h0.4
	c0.1,0,0.1,0,0.1-0.1V28c0-0.3,0.1-0.4,0.6-0.4h0.6c0.1,0,0.1,0,0.1-0.1v-0.3c0-0.1,0-0.1-0.1-0.1C109.6,27.1,109.4,27.1,109,27.1
	L109,27.1z"/>
<path class="st0" d="M113.7,27.1c-0.3,0-0.7,0.1-1.1,0.2c-0.3-0.1-0.7-0.2-1.1-0.2c-0.4,0-0.8,0-1.1,0.1c-0.1,0-0.1,0-0.1,0.1v3.5
	c0,0.1,0,0.1,0.1,0.1h0.5c0.1,0,0.1,0,0.1-0.1v-3.1h0.7c0.4,0,0.5,0,0.7,0.1c0.2,0.1,0.2,0.4,0.2,0.9v2.1c0,0.1,0,0.1,0.1,0.1h0.5
	c0.1,0,0.1,0,0.1-0.1l0-2.1c0-0.4,0-0.8-0.1-1c0.2,0,0.5-0.1,0.8-0.1c0.3,0,0.4,0,0.6,0.1c0.1,0,0.1,0.1,0.2,0.2
	c0.1,0.2,0.1,0.4,0.1,0.8v2c0,0.1,0,0.1,0.1,0.1h0.4c0.1,0,0.1,0,0.1-0.1l0-2.1c0-0.7-0.1-1.1-0.3-1.3
	C114.7,27.1,114.3,27.1,113.7,27.1L113.7,27.1z"/>
<path class="st0" d="M120.4,27.5c-0.2-0.3-0.6-0.4-1.3-0.4c-0.4,0-0.7,0-0.9,0v-1.4c0-0.1,0-0.1-0.1-0.1h-0.5c-0.1,0-0.1,0-0.1,0.1
	v4.9c0,0.1,0,0.1,0.1,0.1c0.5,0.1,1,0.1,1.4,0.1c0.7,0,1.1-0.1,1.3-0.4c0.2-0.3,0.3-0.8,0.3-1.5C120.7,28.2,120.6,27.7,120.4,27.5z
	 M119.9,30.1c-0.1,0.2-0.4,0.3-0.8,0.3c-0.3,0-0.6,0-0.9-0.1v-2.6h0.9c0.4,0,0.7,0.1,0.8,0.3c0.1,0.2,0.2,0.5,0.2,1.1
	C120,29.6,120,29.9,119.9,30.1z"/>
<path class="st0" d="M123.8,27.1c-0.1,0-0.1,0-0.1,0.1v3.1c-0.3,0-0.5,0-0.9,0c-0.4,0-0.7-0.1-0.8-0.3c-0.1-0.2-0.2-0.5-0.2-1.1
	v-1.8c0-0.1,0-0.1-0.1-0.1h-0.4c-0.1,0-0.1,0-0.1,0.1V29c0,0.8,0.1,1.3,0.3,1.5c0.2,0.2,0.6,0.4,1.3,0.4c0.4,0,0.7,0,0.9-0.1v0
	c0,0.3-0.1,0.5-0.2,0.6c-0.1,0.1-0.4,0.2-0.8,0.2h-1c-0.1,0-0.1,0-0.1,0.1v0.3c0,0.1,0,0.1,0.1,0.1c0.3,0,0.7,0.1,1,0.1
	c0.7,0,1-0.1,1.3-0.4c0.2-0.3,0.3-0.7,0.3-1.4v-3.3c0-0.1,0-0.1-0.1-0.1H123.8L123.8,27.1z"/>
<path class="st0" d="M129.7,25.6c-0.1,0-0.1,0-0.1,0.1l-2,2.2v-2.2c0-0.1,0-0.1-0.1-0.1h-0.5c-0.1,0-0.1,0-0.1,0.1v5
	c0,0.1,0,0.1,0.1,0.1h0.5c0.1,0,0.1,0,0.1-0.1v-2.5l2.1,2.6c0,0,0.1,0.1,0.2,0.1h0.5c0.2,0,0.2-0.1,0.1-0.2l-2.2-2.6l2-2.3
	c0.1-0.1,0.1-0.1-0.1-0.1H129.7L129.7,25.6z"/>
<path class="st0" d="M134.2,25.9c-0.3-0.2-0.8-0.3-1.6-0.3c-0.5,0-1,0-1.5,0c-0.1,0-0.1,0-0.1,0.1v5c0,0.1,0,0.1,0.1,0.1h0.5
	c0.1,0,0.1,0,0.1-0.1v-1.9h0.9c0.6,0,0.9,0,1.2-0.1c0.2,0,0.3-0.1,0.4-0.2c0.3-0.2,0.4-0.6,0.4-1.4
	C134.7,26.6,134.5,26.2,134.2,25.9z M133.6,28.2c-0.1,0.1-0.4,0.1-0.6,0.1c-0.1,0-0.3,0-0.4,0h-0.8v-2.1h0.8c0.6,0,1,0.1,1.1,0.2
	c0.2,0.1,0.3,0.4,0.3,0.9C134,27.9,133.9,28.1,133.6,28.2z"/>
<path class="st0" d="M135.5,25.6c-0.1,0-0.1,0-0.1,0.1v5c0,0.1,0,0.1,0.1,0.1h0.5c0.1,0,0.1,0,0.1-0.1v-5c0-0.1,0-0.1-0.1-0.1H135.5
	L135.5,25.6z"/>
<path class="st0" d="M136.8,25.6c-0.1,0-0.1,0-0.1,0.1v0.4c0,0.1,0,0.1,0.1,0.1h1.6v4.5c0,0.1,0,0.1,0.1,0.1h0.5
	c0.1,0,0.1,0,0.1-0.1v-4.5h1.6c0.1,0,0.1,0,0.1-0.1v-0.4c0-0.1,0-0.1-0.1-0.1H136.8L136.8,25.6z"/>
<path class="st0" d="M144.3,28.3L144.3,28.3c0.4-0.1,0.6-0.5,0.6-1.2c0-0.5-0.1-0.9-0.4-1.1c-0.3-0.2-0.7-0.3-1.3-0.3
	c-0.7,0-1.3,0-1.8,0c-0.1,0-0.1,0-0.1,0.1v5c0,0.1,0,0.1,0.1,0.1c0.5,0,1.1,0,2,0c0.6,0,1-0.1,1.3-0.3c0.3-0.2,0.4-0.6,0.4-1.1
	C145.1,28.8,144.8,28.3,144.3,28.3z M142,26.2h1.1c0.4,0,0.7,0.1,0.9,0.2c0.2,0.1,0.3,0.4,0.3,0.7c0,0.5-0.1,0.7-0.5,0.8
	c-0.3,0.1-0.5,0.1-0.9,0.1H142V26.2z M143.4,30.3H142v-1.8h1.4c0.7,0,1,0.2,1,0.9C144.4,30.1,144.1,30.3,143.4,30.3z"/>
<linearGradient id="SVGID_1_" gradientUnits="userSpaceOnUse" x1="27.951" y1="7.2446" x2="27.951" y2="22.2006">
	<stop  offset="0" style="stop-color:#01AFEE"/>
	<stop  offset="1" style="stop-color:#5B6ED0"/>
</linearGradient>
<path class="st1" d="M34.1,10c-0.2-0.1-0.5-0.1-0.8-0.1c-0.3,0-0.6-0.1-0.9-0.1c-0.3,0-0.6,0-0.9-0.1c-0.3,0-0.5,0-0.7,0
	c-1,0-1.9,0.1-2.7,0.2c-0.8,0.1-1.5,0.4-2.1,0.7c-0.6,0.4-1,0.9-1.3,1.5c-0.3,0.7-0.4,1.5-0.4,2.6c0,0.7,0.1,1.4,0.3,2
	c0.2,0.6,0.5,1.1,0.9,1.6c0.4,0.4,0.9,0.8,1.6,1c0.7,0.2,1.5,0.4,2.5,0.4c1.2,0,2.2-0.1,2.9-0.3c0.7-0.2,1.3-0.4,1.8-0.6
	c0,0.2,0,0.5,0,0.8c0,0.3,0,0.5,0,0.8c0,0.4-0.1,0.7-0.3,1c-0.2,0.2-0.5,0.4-0.9,0.6c-0.4,0.1-0.9,0.2-1.5,0.3
	c-0.6,0.1-1.3,0.1-2,0.1c-1,0-2-0.1-2.9-0.3c-0.9-0.2-1.8-0.6-2.5-1.1c-0.7-0.5-1.3-1.3-1.8-2.2c-0.4-0.9-0.7-2.1-0.7-3.6
	c0-1.5,0.2-2.7,0.6-3.7c0.4-1,1-1.8,1.8-2.4c0.7-0.6,1.6-1,2.6-1.3c1-0.3,2-0.4,3.1-0.4c1,0,1.7,0,2.3,0.1c0.6,0.1,1,0.2,1.3,0.3
	C33.7,7.8,33.9,8,34,8.1c0.1,0.2,0.1,0.4,0.1,0.7c0,0.4,0,0.6,0,0.8C34.1,9.7,34.1,9.9,34.1,10L34.1,10z"/>
<linearGradient id="SVGID_2_" gradientUnits="userSpaceOnUse" x1="39.4245" y1="7.2176" x2="39.4245" y2="21.8786">
	<stop  offset="0" style="stop-color:#01AFEE"/>
	<stop  offset="1" style="stop-color:#5B6ED0"/>
</linearGradient>
<path class="st2" d="M36.2,7.5c0.5,0,1,0.1,1.3,0.3c0.3,0.2,0.5,0.5,0.5,1.1v1.4c0.2-0.4,0.4-0.8,0.7-1.1c0.2-0.4,0.5-0.7,0.9-1
	c0.3-0.3,0.7-0.5,1.1-0.7c0.4-0.2,0.9-0.2,1.4-0.2c0.7,0,1.1,0.1,1.3,0.2c0.2,0.2,0.3,0.4,0.3,0.7v1.7c-0.1,0-0.3-0.1-0.4-0.1
	c-0.2,0-0.3,0-0.5,0c-1.4,0-2.6,0.4-3.4,1.2c-0.9,0.8-1.3,1.9-1.3,3.5v5.9c0,0.7-0.1,1.1-0.4,1.3c-0.3,0.2-0.6,0.3-1.1,0.3h-1.1V7.5
	H36.2L36.2,7.5z"/>
<linearGradient id="SVGID_3_" gradientUnits="userSpaceOnUse" x1="49.6543" y1="7.2446" x2="49.6543" y2="22.2006">
	<stop  offset="0" style="stop-color:#01AFEE"/>
	<stop  offset="1" style="stop-color:#5B6ED0"/>
</linearGradient>
<path class="st3" d="M56.4,11.9c-0.3-0.9-0.7-1.7-1.2-2.4c-0.6-0.7-1.3-1.3-2.2-1.7c-0.9-0.4-2-0.6-3.3-0.6c-1.3,0-2.4,0.2-3.3,0.6
	c-0.9,0.4-1.7,1-2.2,1.7c-0.6,0.7-1,1.5-1.2,2.4c-0.3,0.9-0.4,1.8-0.4,2.8c0,0.9,0.1,1.9,0.4,2.8c0.3,0.9,0.7,1.7,1.2,2.4
	c0.6,0.7,1.3,1.3,2.2,1.7c0.9,0.4,2,0.6,3.3,0.6c1.3,0,2.4-0.2,3.3-0.6c0.9-0.4,1.6-1,2.2-1.7c0.6-0.7,1-1.5,1.2-2.4
	c0.3-0.9,0.4-1.8,0.4-2.8C56.8,13.8,56.7,12.8,56.4,11.9z M53.8,16.9c-0.2,0.6-0.5,1.2-0.9,1.6c-0.4,0.4-0.9,0.8-1.4,1
	c-0.5,0.2-1.1,0.3-1.8,0.3c-0.7,0-1.3-0.1-1.8-0.3c-0.6-0.2-1-0.6-1.4-1c-0.4-0.4-0.7-1-0.9-1.6c-0.2-0.6-0.3-1.4-0.3-2.2
	c0-0.8,0.1-1.6,0.3-2.2c0.2-0.6,0.5-1.2,0.9-1.6c0.4-0.4,0.9-0.8,1.4-1c0.5-0.2,1.2-0.3,1.8-0.3c0.6,0,1.2,0.1,1.8,0.3
	c0.6,0.2,1,0.6,1.4,1c0.4,0.4,0.7,1,0.9,1.6c0.2,0.6,0.3,1.4,0.3,2.2C54.1,15.5,54,16.3,53.8,16.9z"/>
<linearGradient id="SVGID_4_" gradientUnits="userSpaceOnUse" x1="67.3785" y1="7.1642" x2="67.3785" y2="22.2006">
	<stop  offset="0" style="stop-color:#01AFEE"/>
	<stop  offset="1" style="stop-color:#5B6ED0"/>
</linearGradient>
<path class="st4" d="M62.9,22.2c-0.3,0-0.6-0.1-0.9-0.3c-0.3-0.2-0.6-0.5-0.9-1c-0.3-0.5-0.7-1.2-1-2c-0.4-0.9-0.8-2-1.4-3.3
	c-0.6-1.5-1.1-2.8-1.4-3.7c-0.3-0.9-0.4-1.7-0.4-2.3c0-0.6,0.1-1,0.4-1.3c0.3-0.3,0.7-0.7,1.3-1c0.4,1.3,0.8,2.6,1.3,3.9
	c0.5,1.4,0.9,2.6,1.4,3.8c0.4,1.1,0.8,2.1,1.1,2.8c0.3,0.7,0.5,1.1,0.7,1.1c0.1,0,0.3-0.2,0.5-0.6c0.2-0.4,0.4-0.9,0.7-1.6
	c0.3-0.7,0.6-1.5,0.9-2.4c0.3-0.9,0.7-1.8,1-2.8c-0.1-0.3-0.2-0.7-0.4-1.1c-0.1-0.4-0.2-0.8-0.2-1.1c0-0.3,0.1-0.7,0.4-1
	c0.2-0.3,0.7-0.7,1.4-1C67.7,8,68,8.8,68.3,9.7c0.3,0.9,0.6,1.7,0.9,2.6c0.3,0.9,0.6,1.7,0.9,2.5c0.3,0.8,0.6,1.5,0.8,2.1
	c0.2,0.6,0.4,1.1,0.6,1.4c0.2,0.3,0.3,0.5,0.4,0.5c0.1,0,0.2-0.2,0.4-0.6c0.2-0.4,0.4-0.9,0.7-1.6c0.3-0.6,0.5-1.4,0.8-2.2
	c0.3-0.8,0.6-1.7,0.9-2.5c0.3-0.9,0.6-1.7,0.8-2.5c0.3-0.8,0.5-1.6,0.7-2.2c0.6,0.4,1,0.8,1.3,1.1c0.3,0.3,0.4,0.7,0.4,1.1
	c0,0.2-0.1,0.5-0.2,0.9c-0.1,0.4-0.3,0.9-0.5,1.5c-0.2,0.6-0.4,1.1-0.6,1.8c-0.2,0.6-0.5,1.2-0.7,1.8c-0.5,1.3-1,2.5-1.3,3.3
	c-0.4,0.9-0.7,1.6-1,2.1c-0.3,0.5-0.6,0.9-0.9,1.1c-0.3,0.2-0.6,0.3-0.9,0.3c-0.4,0-0.7-0.1-1-0.3c-0.3-0.2-0.6-0.6-0.9-1.2
	c-0.3-0.6-0.7-1.4-1.1-2.4c-0.4-1-0.9-2.3-1.5-3.8c-0.6,1.5-1,2.7-1.5,3.7c-0.4,1-0.8,1.8-1.1,2.4c-0.3,0.6-0.6,1-0.9,1.2
	C63.5,22.1,63.2,22.2,62.9,22.2L62.9,22.2z"/>
<linearGradient id="SVGID_5_" gradientUnits="userSpaceOnUse" x1="84.487" y1="1.5626" x2="84.487" y2="22.2006">
	<stop  offset="0" style="stop-color:#01AFEE"/>
	<stop  offset="1" style="stop-color:#5B6ED0"/>
</linearGradient>
<path class="st5" d="M77.4,14.8c0-1.3,0.2-2.4,0.5-3.3c0.3-0.9,0.8-1.7,1.4-2.4c0.6-0.6,1.3-1.1,2.1-1.4c0.8-0.3,1.7-0.5,2.7-0.5
	c0.8,0,1.4,0,1.8,0.1c0.4,0.1,0.7,0.3,0.9,0.5c0.2,0.2,0.3,0.5,0.3,0.8c0,0.3,0,0.7,0,1.2c-0.1,0-0.3,0-0.5-0.1
	c-0.2,0-0.4,0-0.6-0.1c-0.2,0-0.4,0-0.7,0c-0.2,0-0.4,0-0.5,0c-0.8,0-1.5,0.1-2.1,0.3c-0.6,0.2-1.1,0.5-1.6,0.9
	c-0.4,0.4-0.8,0.9-1,1.6c-0.2,0.7-0.3,1.5-0.3,2.4c0,1,0.1,1.8,0.4,2.4c0.3,0.6,0.7,1.1,1.1,1.5c0.4,0.4,0.9,0.6,1.5,0.8
	c0.5,0.1,1.1,0.2,1.5,0.2c1,0,1.8-0.1,2.4-0.3c0.6-0.2,1-0.5,1.3-1c0.3-0.4,0.4-0.9,0.5-1.5c0.1-0.6,0.1-1.2,0.1-1.9V3.5
	c0-0.4,0-0.8,0.1-1C89,2.2,89.1,2,89.3,1.9c0.1-0.1,0.3-0.2,0.6-0.3c0.2,0,0.6-0.1,0.9-0.1h0.8v12.3c0,1.2,0,2.3-0.1,3.4
	c-0.1,1-0.4,1.9-0.8,2.6c-0.4,0.7-1.1,1.3-2,1.7c-0.9,0.4-2.2,0.6-3.8,0.6c-0.9,0-1.8-0.1-2.6-0.3c-0.9-0.2-1.7-0.6-2.4-1.2
	c-0.7-0.6-1.3-1.3-1.7-2.3C77.6,17.5,77.4,16.3,77.4,14.8L77.4,14.8z"/>
<path class="st6" d="M105.3,1.6h-1.8c-0.3,0-0.4,0.1-0.4,0.4v5.3c-0.9-0.1-2.1-0.2-3.6-0.2c-2.5,0-4.2,0.5-5,1.5
	c-0.8,1-1.2,3-1.2,6.1c0,3.6,0.4,5.5,1.8,6.6c1,0.6,2.3,0.9,4.5,0.9c1.8,0,3.7-0.2,5.6-0.5c0.3,0,0.4-0.2,0.4-0.4V2
	C105.7,1.8,105.5,1.6,105.3,1.6z M103.1,19.7c-1.2,0.1-2.3,0.2-3.5,0.2c-1.6,0-2.6-0.3-3.1-1c-0.4-0.7-0.6-2.1-0.6-4.2
	c0-2.2,0.2-3.6,0.6-4.3c0.4-0.7,1.5-1,3.1-1h3.4V19.7z"/>
<path class="st6" d="M117.8,7.3c-0.3,0-0.4,0.1-0.4,0.4v12.2h-3.7c-1.5,0-2-0.1-2.7-0.6c-0.6-0.6-0.7-1.6-0.7-3.7v-8
	c0-0.3-0.1-0.4-0.4-0.4h-1.7c-0.3,0-0.5,0.1-0.5,0.4v8.2c0,2.9,0.3,4.4,1.4,5.3c0.5,0.5,1.2,0.7,1.9,0.9c0.7,0.1,1.7,0.2,3.1,0.2
	c2.2,0,4.1-0.1,5.6-0.4c0.3-0.1,0.4-0.1,0.4-0.4V7.7c0-0.3-0.1-0.4-0.4-0.4H117.8L117.8,7.3z"/>
<path class="st6" d="M126.4,7.2c-0.8,0-1.3,0-2.2,0.2c-0.4,0.1-0.8,0.3-1.1,0.5c-0.5,0.4-1,1.3-1,2.4v11.3c0,0.3,0.1,0.4,0.4,0.4
	h1.8c0.3,0,0.4-0.1,0.4-0.4V10.9c0-1.2,0.5-1.5,2.4-1.5h1.5c0.3,0,0.4-0.1,0.4-0.4V7.9c0-0.2-0.1-0.4-0.4-0.5
	C128,7.3,127.8,7.2,126.4,7.2L126.4,7.2z"/>
<path class="st6" d="M135.4,7.2c-1.6,0-2.7,0.1-3.8,0.6c-1.1,0.4-1.7,1.4-1.7,2.8v0.6c0,1.9,0.9,3.2,2.6,3.9l3.8,1.5
	c1.2,0.5,1.6,1,1.6,1.8v0.3c0,1.2-0.6,1.4-2.8,1.4h-5c-0.3,0-0.4,0.1-0.4,0.4v1.2c0,0.2,0.1,0.4,0.4,0.4c1.4,0.2,3,0.2,4.9,0.2
	c2,0,3.3-0.2,4.2-0.7c0.8-0.5,1.3-1.5,1.3-2.9v-0.3c0-1.8-0.5-2.9-2.7-3.8l-3.6-1.4c-1.1-0.4-1.7-1.1-1.7-1.9v-0.4
	c0-0.9,0.6-1.4,2-1.4h5c0.3,0,0.4-0.1,0.4-0.4V7.8c0-0.2-0.1-0.4-0.4-0.4C138.2,7.2,136.8,7.2,135.4,7.2L135.4,7.2z"/>
<path class="st6" d="M142.3,1.6c-0.3,0-0.4,0.1-0.4,0.4v19.6c0,0.3,0.1,0.4,0.4,0.4h1.8c0.3,0,0.4-0.1,0.4-0.4V9.4h3.7
	c1.5,0,2,0.1,2.6,0.6c0.6,0.5,0.8,1.6,0.8,3.7v8c0,0.3,0.1,0.4,0.4,0.4h1.8c0.3,0,0.4-0.1,0.4-0.4v-8.2c0-2.9-0.3-4.4-1.4-5.3
	c-0.5-0.5-1.2-0.7-1.9-0.8c-0.7-0.1-1.7-0.2-3.1-0.2c-1.4,0-2.5,0.1-3.4,0.1V2c0-0.3-0.1-0.4-0.4-0.4H142.3L142.3,1.6z"/>
<path class="st6" d="M160.9,7.2c-1.4,0-2.8,0.1-4.1,0.3c-0.3,0.1-0.4,0.1-0.4,0.4V9c0,0.3,0.1,0.4,0.4,0.4h4.1
	c2.5,0,3.5,0.7,3.5,2.4v1.8l-4.3,0c-3.2,0-4.8,1.1-4.8,4.2c0,1.7,0.4,2.9,1.2,3.5c0.8,0.6,2.1,0.9,4,0.9c2.9,0,4.9-0.2,6-0.6
	c0.4-0.1,0.5-0.4,0.5-0.8v-9.5C167,8.4,165.2,7.2,160.9,7.2z M164.5,19.7c-0.8,0.2-2,0.3-3.5,0.3c-2.3,0-3.1-0.5-3.1-2.2
	c0-1.5,0.7-2,2.3-2h4.3V19.7z"/>
<path class="st6" d="M169.5,1.6c-0.3,0-0.4,0.1-0.4,0.4v19.6c0,0.3,0.1,0.4,0.4,0.4h1.8c0.3,0,0.4-0.1,0.4-0.4V2
	c0-0.3-0.1-0.4-0.4-0.4H169.5L169.5,1.6z"/>
<path class="st7" d="M12.4,26.6c0.2,0.3,0.4,0.1,0.5-0.2l0,0l0,0c0-0.3,0-0.6,0-0.9c0-0.7,0.1-1.4,0.4-2c0.2-0.3,0.3-0.3,0.5-0.5
	l0.1-0.1c0.1,0,0.6,0,0.8,0c2.5,0,4-1,4.3-3.5c0.1-0.5,0.3-2.4,0.2-2.8c-0.3,0.4-0.6,0.7-1.3,0.9c-0.9,0.4-1.6,0.2-2.5,0.8
	c-0.1,0-0.1,0-0.2,0.1c-1.6,1-2.4,2.5-2.6,4.3c0,0.3-0.1,0.6-0.1,1c-0.5-1.7-1.6-2.9-3.9-3C8.1,21,7.8,21,7.3,21.3
	c-0.4,0.2-0.8,0.6-1.2,0.7c-0.2,0-0.3,0.1-0.5,0.1c-0.1,0-0.2,0-0.3,0l-0.2,0.1c0,0,0,0,0,0c0.2,0.1,0.3,0.3,0.4,0.4
	c0.1,0.1,0.1,0,0.2,0.2c0.2,0.1-0.1,0,0.1,0.1c0.1,0,0.2,0.1,0.3,0.2c0.2,0.1,0,0,0.2,0.2L7,23.6c0.9,0.4,1.9,0.5,3,0.2
	c0.4-0.1,1.4-0.6,1.9-0.1c0.3,0.3,0.4,1.3,0.4,2c0,0.3,0,0.5,0,0.7C12.3,26.5,12.3,26.6,12.4,26.6C12.4,26.6,12.3,26.7,12.4,26.6
	L12.4,26.6L12.4,26.6L12.4,26.6z"/>
<polygon class="st7" points="11,4.4 12.5,4.4 12.5,6 11,6 11,4.4 "/>
<polygon class="st8" points="13.6,2.9 15.1,2.9 15.1,4.4 13.6,4.4 13.6,2.9 "/>
<polygon class="st9" points="14.3,15.2 15.8,15.2 15.8,16.7 14.3,16.7 14.3,15.2 "/>
<polygon class="st10" points="11.4,15 12.9,15 12.9,16.5 11.4,16.5 11.4,15 "/>
<polygon class="st11" points="11.4,18 12.9,18 12.9,19.5 11.4,19.5 11.4,18 "/>
<polygon class="st7" points="8.9,16.4 10.4,16.4 10.4,17.9 8.9,17.9 8.9,16.4 "/>
<polygon class="st8" points="7.5,12 10.7,12 10.7,15.2 7.5,15.2 7.5,12 "/>
<polygon class="st9" points="9.5,8.5 14,8.5 14,13 9.5,13 9.5,8.5 "/>
<polygon class="st11" points="7.8,7 10.7,7 10.7,9.9 7.8,9.9 7.8,7 "/>
<polygon class="st10" points="14,6.1 16.5,6.1 16.5,8.6 14,8.6 14,6.1 "/>
<polygon class="st7" points="13.2,12.2 15.1,12.2 15.1,14.2 13.2,14.2 13.2,12.2 "/>
<polygon class="st10" points="9.5,12 10.7,12 10.7,13 9.5,13 9.5,12 "/>
<polygon class="st10" points="13.2,12.2 14,12.2 14,13 13.2,13 13.2,12.2 "/>
<polygon class="st10" points="9.5,8.5 10.7,8.5 10.7,9.9 9.5,9.9 9.5,8.5 "/>
</svg>
