<?xml version="1.0" encoding="utf-8"?>
<!-- Generator: Adobe Illustrator 17.0.0, SVG Export Plug-In . SVG Version: 6.00 Build 0)  -->
<!DOCTYPE svg PUBLIC "-//W3C//DTD SVG 1.1//EN" "http://www.w3.org/Graphics/SVG/1.1/DTD/svg11.dtd">
<svg version="1.1" id="Layer_1" xmlns="http://www.w3.org/2000/svg" xmlns:xlink="http://www.w3.org/1999/xlink" x="0px" y="0px"
	 width="104.5px" height="102.5px" viewBox="0 0 104.5 102.5" enable-background="new 0 0 104.5 102.5" xml:space="preserve">
<path fill="#333333" d="M71.404,28.66c-1.006,2.254-2.368,4.312-3.558,6.465c-0.815,1.475-1.66,2.934-2.518,4.448
	c2.73,0.244,4.441,1.529,5.195,4.543c1.327-1.451,2.444-2.729,3.624-3.946c1.2-1.238,2.491-2.387,3.68-3.635
	c0.459-0.482,0.688-0.495,1.213-0.065c2.173,1.78,4.437,3.45,6.586,5.257c0.541,0.454,0.675,0.264,0.955-0.122
	c1.791-2.465,3.583-4.931,5.379-7.392c1.12-1.534,2.241-3.066,3.38-4.586c0.218-0.291,0.398-0.575,0.439-0.941
	c-0.292-0.236-0.622-0.081-0.92-0.137c-0.637-0.12-1.616,0.373-1.853-0.274c-0.298-0.812-0.115-1.812-0.081-2.728
	c0.016-0.421,0.422-0.276,0.668-0.277c2.08-0.011,4.16-0.009,6.239-0.004c0.308,0.001,0.623-0.061,0.739,0.398
	c0.564,2.237,1.161,4.467,1.736,6.702c0.053,0.206,0.175,0.465-0.192,0.57c-0.766,0.22-1.523,0.472-2.289,0.694
	c-0.435,0.127-0.543-0.182-0.636-0.513c-0.203-0.722-0.419-1.44-0.687-2.352c-0.93,1.225-1.824,2.359-2.672,3.526
	c-2.819,3.881-5.628,7.769-8.421,11.668c-0.472,0.658-0.849,0.759-1.513,0.198c-2.21-1.865-4.477-3.662-6.705-5.507
	c-0.498-0.413-0.774-0.269-1.188,0.152c-2.474,2.518-4.976,5.01-7.494,7.485c-0.33,0.325-0.445,0.611-0.347,1.047
	c0.338,1.514,0.439,2.995-0.655,4.301c-0.275,0.328-0.123,0.637,0.095,0.974c1.153,1.791,1.099,3.613-0.022,5.385
	c-0.225,0.356-0.378,0.662-0.091,0.941c0.946,0.919,1.116,2.142,0.81,3.223c-0.458,1.613,0.398,2.579,1.191,3.705
	c2.644,3.758,3.885,7.917,3.756,12.548C75.14,84.238,74,87.718,71.987,90.868c-2.48,3.881-5.933,6.67-10.311,8.281
	c-3.989,1.468-8.081,1.667-12.132,0.676c-4.688-1.147-8.577-3.738-11.507-7.628c-2.083-2.767-3.59-5.802-3.964-9.31
	c-0.061-0.572-0.37-1.017-0.79-1.428c-1.788-1.75-3.559-3.519-5.311-5.305c-0.511-0.52-0.891-0.452-1.373,0.033
	C20.014,82.813,13.409,89.42,6.841,96.064c-0.619,0.626-1.044,0.475-1.547,0.002c-0.37-0.348-0.654-0.767-1.085-1.078
	c-0.518-0.375-0.139-0.713,0.194-1.043c2.214-2.195,4.418-4.401,6.617-6.612c5.132-5.16,10.261-10.322,15.383-15.491
	c0.544-0.549,0.973-0.856,1.681-0.125c1.851,1.913,3.779,3.751,5.761,5.704c0.393-1.69,0.561-3.452,1.246-5.088
	c0.494-1.178,0.99-2.344,1.694-3.41c0.361-0.547,0.586-0.778-0.283-1.281c-1.194-0.691-2.352-0.829-3.639-0.826
	c-8.879,0.015-17.759-0.012-26.638,0.034c-1.053,0.005-1.487-0.243-1.298-1.311c0.041-0.233,0.036-0.483,0.001-0.718
	c-0.132-0.882,0.191-1.157,1.111-1.144c3.959,0.054,7.919,0.023,11.879,0.023c5.44,0,10.879,0.02,16.319-0.016
	c1.159-0.008,2.167,0.263,3.146,0.87c1.507,0.935,1.95,0.895,3.097-0.402c2.404-2.718,3.825-5.897,4.271-9.508
	c0.064-0.518,0.008-0.973-0.419-1.289c-0.52-0.385-0.412-0.607,0.062-0.974c2.701-2.087,5.391-4.191,8.041-6.343
	c0.491-0.399,0.705-0.439,1.141,0.034c0.856,0.929,1.767,1.813,2.703,2.664c1.24,1.126,2.552,1.052,3.791-0.146
	c0.913-0.882,0.875-2.231-0.069-3.415c-0.868-1.089-1.715-2.194-2.566-3.297c-0.399-0.517-0.875-0.885-1.527-1.067
	c-2.487-0.694-5.001-1.321-7.433-2.175c-1.62-0.569-2.549,0.315-3.575,1.18c-2.303,1.941-4.608,3.88-6.884,5.853
	c-0.436,0.378-0.875,0.472-1.414,0.472C26.4,46.132,16.201,46.119,6.002,46.159C5.041,46.163,4.899,45.838,4.914,45
	c0.04-2.157,0.003-2.158,2.131-2.158c9.279,0,18.558-0.013,27.838,0.018c1.065,0.004,1.89-0.248,2.673-1.005
	c1.111-1.074,2.321-2.052,3.545-2.999c0.508-0.392,0.482-0.623,0.165-1.131c-1.659-2.654-3.275-5.335-4.876-8.025
	c-0.201-0.337-0.561-0.681-0.351-1.165c4.097-0.337,8.212-0.5,12.306-0.267c7.42,0.423,14.839,0.112,22.257,0.236
	C70.877,28.509,71.166,28.457,71.404,28.66z"/>
<path fill="#F9B948" d="M62.561,12.509c3.761,0.171,6.22,2.792,6.308,6.442c0.084,3.477-2.974,6.353-6.456,6.304
	c-3.558-0.051-6.308-2.887-6.267-6.45C56.189,15.13,59.038,12.544,62.561,12.509z"/>
<path fill="#F9B948" d="M71.404,28.66c-0.478-0.024-0.956-0.068-1.433-0.068c-10.915-0.004-21.831-0.002-32.746-0.005
	c-0.397,0-0.795-0.033-1.189-0.051c0.671-0.028,1.346-0.127,2.006-0.067c1.059,0.096,1.204-0.298,0.874-1.212
	c-0.891-2.465-0.245-4.63,1.506-6.464c1.81-1.896,4.117-2.217,6.498-1.51c3.193,0.947,4.965,4.302,4.116,7.561
	c-0.42,1.614-0.443,1.608,1.27,1.608c6.269,0,12.537-0.001,18.806,0c0.079,0,0.169-0.003,0.233,0.032
	C71.384,28.507,71.386,28.599,71.404,28.66z"/>
<path fill="#333333" d="M49.733,12.542c0,1.314-0.024,2.629,0.01,3.942c0.015,0.591-0.127,0.819-0.783,0.838
	c-2.415,0.071-2.415,0.101-2.414-2.315c0-2.15,0.023-4.301-0.014-6.45c-0.011-0.661,0.162-0.875,0.857-0.884
	c2.345-0.029,2.344-0.06,2.344,2.241C49.733,10.79,49.733,11.666,49.733,12.542z"/>
<path fill="#333333" d="M64.121,6.8c0-1,0.057-2.004-0.018-2.998c-0.059-0.786,0.252-0.908,0.951-0.906
	c2.215,0.005,2.215-0.024,2.215,2.147c0,1.64-0.028,3.28,0.013,4.919c0.017,0.678-0.089,0.979-0.891,0.977
	c-2.27-0.006-2.27,0.039-2.27-2.218C64.121,8.08,64.121,7.44,64.121,6.8z"/>
<path fill="#333333" d="M43.252,13.378c0,1.078-0.018,2.157,0.007,3.235c0.012,0.5-0.143,0.67-0.673,0.706
	c-2.49,0.171-2.488,0.191-2.488-2.242c0-1.638,0.027-3.276-0.013-4.912c-0.015-0.625,0.169-0.801,0.801-0.816
	c2.367-0.057,2.366-0.083,2.366,2.232C43.252,12.18,43.252,12.779,43.252,13.378z"/>
<path fill="#333333" d="M60.841,7.739c0,0.318,0,0.636,0,0.954c0,2.254,0,2.219-2.232,2.241c-0.77,0.008-1.025-0.188-0.992-0.981
	c0.063-1.548,0.041-3.101,0.007-4.65c-0.012-0.571,0.17-0.722,0.738-0.745c2.48-0.103,2.479-0.124,2.479,2.347
	C60.841,7.182,60.841,7.46,60.841,7.739z"/>
<path fill="#FEFEFE" d="M56.112,67.329c1.408,0.969,2.889,1.279,4.473,1.154c2.255-0.177,4.556,0.4,6.773-0.404
	c0.384-0.139,0.493,0.173,0.65,0.375c3.586,4.609,4.939,9.711,3.511,15.475c-1.193,4.816-3.949,8.504-8.182,10.942
	c-4.274,2.462-8.875,3.102-13.707,1.642c-4.457-1.347-7.885-4-10.24-7.961c-2.591-4.359-3.069-9.021-1.722-13.926
	c0.951-3.463,3.191-6.038,5.438-8.67c2.827-3.312,4.561-7.136,4.865-11.53c0.042-0.601,0.208-0.969,0.74-1.342
	c1.104-0.773,2.109-1.688,3.135-2.568c0.65-0.557,1.123-0.46,1.8,0.09c1.059,0.859,1.048,2.256,1.871,3.203
	c0.27,0.31-0.013,0.59-0.187,0.851c-1.16,1.749-1.084,3.529,0,5.248c0.32,0.507,0.291,0.78-0.018,1.24
	c-1.078,1.603-1.1,3.284-0.099,4.921c0.398,0.65,0.297,0.778-0.424,0.808c-1.94,0.078-1.983,0.102-1.931,2.037
	c0.021,0.792-0.16,1.079-0.997,1.158c-4.069,0.382-6.148,3.966-4.934,7.634c0.678,2.05,2.96,3.566,5.63,3.617
	c1.399,0.027,2.801-0.022,4.199,0.019c1.481,0.043,2.528,1.007,2.561,2.274c0.031,1.226-1.185,2.412-2.6,2.453
	c-1.439,0.042-2.88,0.034-4.319,0.004c-1.708-0.036-2.54-0.83-2.648-2.562C49.72,83,49.596,82.78,49.071,82.838
	c-0.277,0.03-0.559,0.005-0.839,0.005c-1.892,0-1.996,0.14-1.516,2.043c0.667,2.65,2.582,4.273,5.376,4.431
	c0.683,0.038,0.748,0.289,0.759,0.849c0.047,2.379,0.062,2.35,2.425,2.292c0.643-0.016,0.841-0.208,0.811-0.824
	c-0.033-0.677-0.19-1.458,0.081-2.012c0.319-0.654,1.215-0.217,1.846-0.401c2.25-0.655,3.843-2.051,4.36-4.302
	c0.508-2.21-0.212-4.196-2.044-5.643c-1.065-0.84-2.336-1.188-3.683-1.211c-1.4-0.023-2.8,0.01-4.2-0.01
	c-1.706-0.024-2.705-0.912-2.707-2.369c-0.002-1.414,1.068-2.388,2.696-2.414c1.36-0.021,2.72-0.019,4.08-0.001
	c1.632,0.021,2.659,0.958,2.793,2.608c0.042,0.51,0.172,0.735,0.694,0.682c0.237-0.024,0.48-0.003,0.72-0.003
	c1.816,0.002,2.202-0.474,1.653-2.248c-0.675-2.182-2.151-3.588-4.384-4.141c-0.575-0.142-1.175-0.179-1.762-0.279
	c-0.048-0.008-0.111-0.126-0.112-0.193C56.109,68.949,56.112,68.2,56.112,67.329z"/>
<path fill="#FEFEFE" d="M41.515,31.777c8.2,0,16.269,0,24.444,0c-0.731,1.831-1.877,3.39-2.761,5.086
	c-0.312,0.597-0.628,1.196-0.994,1.76c-0.907,1.398-1.995,1.457-3.122,0.205c-0.355-0.395-0.801-0.643-1.312-0.789
	c-2.597-0.741-5.192-1.489-7.789-2.229c-0.574-0.164-1.198-0.214-1.726-0.469c-1.357-0.656-2.564-0.717-3.589,0.572
	c-0.411,0.517-0.628,0.34-0.894-0.181C43.097,34.406,42.108,33.249,41.515,31.777z"/>
<path fill="#FCFCFC" d="M62.416,65.164c-1.113,0-2.227,0.035-3.338-0.011c-0.892-0.037-1.421-0.602-1.414-1.463
	c0.006-0.829,0.505-1.452,1.368-1.536c2.299-0.223,4.608-0.227,6.906,0.007c0.826,0.084,1.336,0.653,1.339,1.539
	c0.003,0.925-0.548,1.41-1.402,1.457c-1.149,0.063-2.305,0.016-3.457,0.016C62.417,65.171,62.417,65.167,62.416,65.164z"/>
<path fill="#FEFEFE" d="M62.536,55.713c1.038,0,2.079-0.051,3.112,0.015c0.905,0.058,1.658,0.435,1.619,1.52
	c-0.037,1.045-0.691,1.621-1.674,1.648c-2.074,0.057-4.151,0.04-6.225,0.001c-0.941-0.018-1.771-0.833-1.716-1.633
	c0.074-1.072,0.782-1.516,1.771-1.547c1.037-0.033,2.075-0.007,3.113-0.007C62.536,55.71,62.536,55.711,62.536,55.713z"/>
<path fill="#FDFDFD" d="M60.266,52.381c1.24-0.72,2.07-1.352,2.658-2.304c0.668-1.08,3.134-1.155,3.981-0.191
	c0.416,0.474,0.49,1.013,0.283,1.558c-0.209,0.55-0.622,0.932-1.264,0.934C64.14,52.385,62.357,52.381,60.266,52.381z"/>
<path fill="#FCFCFC" d="M62.373,42.855c1.19,0,2.211-0.061,3.22,0.016c1.125,0.086,1.744,0.781,1.677,1.739
	c-0.077,1.107-0.884,1.412-1.792,1.512c-1.008,0.111-1.995,0.166-2.016-1.334C63.452,44.095,62.795,43.651,62.373,42.855z"/>
</svg>
