<?xml version="1.0" encoding="utf-8"?>
<!-- Generator: Adobe Illustrator 17.0.0, SVG Export Plug-In . SVG Version: 6.00 Build 0)  -->
<!DOCTYPE svg PUBLIC "-//W3C//DTD SVG 1.1//EN" "http://www.w3.org/Graphics/SVG/1.1/DTD/svg11.dtd">
<svg version="1.1" id="Layer_1" xmlns="http://www.w3.org/2000/svg" xmlns:xlink="http://www.w3.org/1999/xlink" x="0px" y="0px"
	 width="95px" height="94px" viewBox="0 0 95 94" enable-background="new 0 0 95 94" xml:space="preserve">
<path fill="#040707" d="M80.8,63.406c0,6.96,0.021,13.92-0.023,20.879c-0.006,1,0.263,1.295,1.257,1.249
	c1.756-0.081,3.519-0.028,5.279-0.02c1.121,0.005,2.058,0.649,2.063,1.395c0.005,0.764-1.015,1.486-2.129,1.488
	c-2.28,0.006-4.56,0.003-6.84,0.001c-1.924-0.002-2.332-0.398-2.332-2.307c-0.002-13.84-0.012-27.68,0.021-41.519
	c0.002-1.002-0.151-1.442-1.275-1.327c-1.148,0.118-2.321,0.08-3.476,0.008c-0.815-0.051-0.978,0.247-0.974,1.007
	c0.032,5.12,0.017,10.24,0.017,15.36c0,8.88,0.001,17.76-0.001,26.64c0,1.661-0.473,2.135-2.121,2.139c-1.4,0.004-2.8,0.005-4.2,0
	c-1.568-0.007-2.07-0.503-2.071-2.09c-0.005-7.36-0.031-14.72,0.028-22.079c0.009-1.099-0.304-1.36-1.323-1.272
	c-1.072,0.092-2.163,0.082-3.237,0.001c-0.86-0.065-1.046,0.226-1.042,1.055c0.034,7.36,0.02,14.72,0.019,22.08
	c0,1.94-0.369,2.305-2.318,2.308c-1.4,0.002-2.8,0.008-4.2-0.002c-1.436-0.01-1.926-0.496-1.927-1.943
	c-0.005-10.2-0.02-20.4,0.023-30.599c0.004-1.053-0.233-1.412-1.31-1.312c-1.11,0.103-2.244,0.093-3.356,0.001
	c-0.924-0.076-1.103,0.237-1.1,1.116c0.034,9.4,0.021,18.8,0.021,28.199c0,0.88,0.02,1.761-0.005,2.64
	c-0.037,1.259-0.683,1.885-1.95,1.897c-1.4,0.014-2.8,0.005-4.2,0.003c-1.837-0.003-2.282-0.43-2.282-2.236
	c-0.004-8.24-0.022-16.48,0.023-24.719c0.006-1.035-0.208-1.432-1.302-1.324c-1.069,0.106-2.163,0.087-3.236,0.004
	c-0.953-0.074-1.2,0.237-1.195,1.189c0.039,8.2,0.023,16.4,0.022,24.599c0,2.153-0.336,2.487-2.495,2.487
	c-1.28,0-2.56,0.005-3.84-0.001c-1.564-0.008-2.056-0.502-2.059-2.103c-0.006-4.6-0.026-9.2,0.019-13.8
	c0.009-0.874-0.167-1.209-1.103-1.131c-1.112,0.092-2.242,0.081-3.357,0.003c-0.919-0.064-1.217,0.185-1.204,1.162
	c0.057,4.479,0.026,8.96,0.024,13.439c-0.001,2.025-0.416,2.429-2.477,2.43c-2.28,0.001-4.56,0.007-6.84-0.003
	c-1.191-0.005-1.94-0.599-1.875-1.517c0.082-1.16,0.904-1.372,1.871-1.369c1.8,0.006,3.603-0.066,5.399,0.028
	c0.997,0.052,1.15-0.311,1.142-1.197c-0.042-4.56-0.022-9.12-0.017-13.68c0.002-1.685,0.347-2.036,2.038-2.045
	c2.4-0.013,4.8-0.017,7.2,0.002c1.602,0.012,1.978,0.396,1.981,2.003c0.009,4.6,0.044,9.2-0.027,13.799
	c-0.016,1.056,0.411,1.201,1.235,1.089c0.702-0.095,1.658,0.475,1.645-1.058c-0.068-8.199-0.033-16.399-0.031-24.599
	c0-2.241,0.21-2.447,2.46-2.447c2.32-0.001,4.64-0.006,6.96,0.003c1.408,0.006,1.762,0.358,1.763,1.774
	c0.005,8.4-0.001,16.8,0.016,25.2c0.001,0.38-0.286,1.021,0.359,1.09c0.775,0.083,1.61,0.229,2.347-0.094
	c0.299-0.131,0.112-0.666,0.112-1.014c0.008-10.08,0.006-20.16,0.006-30.239c0-1.955,0.483-2.426,2.486-2.428
	c2.12-0.001,4.24-0.001,6.36,0c2.161,0.001,2.453,0.284,2.454,2.384c0.001,10.08,0.018,20.16-0.027,30.239
	c-0.005,1.032,0.284,1.262,1.256,1.216c1.73-0.081,1.733-0.021,1.733-1.788c0-7.08-0.001-14.16,0.001-21.24
	c0.001-1.996,0.373-2.362,2.384-2.365c2.16-0.002,4.32-0.004,6.48,0.001c1.866,0.004,2.27,0.401,2.271,2.229
	c0.002,7.32,0.048,14.64-0.041,21.959c-0.017,1.397,0.694,1.148,1.517,1.195c0.923,0.053,1.382-0.033,1.377-1.226
	c-0.054-13.76-0.035-27.519-0.034-41.279c0-2.352,0.273-2.624,2.613-2.624c2.2,0,4.4-0.004,6.6,0.002
	c1.544,0.004,1.97,0.434,1.971,2.007C80.803,49.407,80.8,56.407,80.8,63.406z"/>
<path fill="#040707" d="M61.107,37.552c-3.979-0.016-6.562-3.83-5.113-7.613c0.235-0.615,0.207-0.97-0.281-1.438
	c-1.723-1.654-3.407-3.35-5.072-5.064c-0.444-0.458-0.813-0.649-1.445-0.35c-1.685,0.798-3.408,0.601-4.919-0.327
	c-0.863-0.53-1.216-0.24-1.758,0.305c-4.436,4.464-8.884,8.914-13.334,13.364c-4.168,4.168-8.317,8.354-12.536,12.47
	c-0.718,0.701-0.752,1.356-0.637,2.215c0.532,3.972-3.478,7.246-7.268,5.956c-3.087-1.05-4.685-4.524-3.437-7.469
	c1.324-3.123,4.895-4.4,7.869-2.73c0.74,0.415,1.134,0.465,1.77-0.183c4.068-4.143,8.187-8.236,12.293-12.342
	c4.67-4.67,9.345-9.336,14.014-14.006c0.29-0.29,0.635-0.486,0.425-1.081c-0.779-2.21,0.178-4.031,1.676-5.495
	c1.581-1.544,3.596-1.779,5.685-1.085c2.831,0.94,4.672,4.612,3.084,7.63c-0.196,0.372-0.135,0.524,0.136,0.79
	c1.847,1.817,3.68,3.648,5.501,5.491c0.383,0.388,0.687,0.485,1.242,0.237c1.369-0.612,2.84-0.597,4.201-0.049
	c0.702,0.283,1.037,0.163,1.51-0.316c2.597-2.63,5.224-5.229,7.838-7.842c1.94-1.939,3.867-3.892,5.824-5.814
	c0.348-0.342,0.48-0.51,0.212-1.05c-1.295-2.602-0.005-6.092,2.611-7.288c2.918-1.334,6.183-0.181,7.522,2.561
	c1.184,2.423,0.573,4.47-0.897,6.2c-1.555,1.83-3.841,2.328-6.193,1.446c-0.597-0.224-0.979-0.205-1.464,0.285
	c-4.491,4.534-8.999,9.052-13.547,13.529c-0.568,0.56-0.447,0.975-0.23,1.567C67.77,33.835,65.129,37.568,61.107,37.552z"/>
<path fill="#FDFDFD" d="M63.983,32.014c-0.005,1.546-1.267,2.806-2.81,2.804c-1.578-0.002-2.785-1.213-2.789-2.798
	c-0.004-1.603,1.28-2.895,2.846-2.866C62.714,29.182,63.988,30.505,63.983,32.014z"/>
<path fill="#FEFEFE" d="M7.711,51.657c0.022-1.586,1.256-2.751,2.865-2.704c1.506,0.043,2.739,1.273,2.748,2.741
	c0.009,1.534-1.377,2.901-2.908,2.869C8.909,54.531,7.69,53.221,7.711,51.657z"/>
<path fill="#FEFEFE" d="M47.079,20.743c-1.557-0.001-2.818-1.279-2.796-2.834c0.022-1.579,1.256-2.78,2.84-2.765
	c1.506,0.015,2.862,1.35,2.853,2.81C49.967,19.387,48.558,20.744,47.079,20.743z"/>
<path fill="#FDFDFD" d="M86.503,9.524c-0.034,1.481-1.411,2.83-2.86,2.801c-1.417-0.028-2.851-1.478-2.834-2.864
	c0.019-1.527,1.423-2.805,3.018-2.747C85.332,6.769,86.538,8.034,86.503,9.524z"/>
</svg>
